<svg width="262" height="111" viewBox="0 0 262 111" fill="none" xmlns="http://www.w3.org/2000/svg">
<g opacity="0.8" filter="url(#filter0_d_4871_2677)">
<mask id="path-1-inside-1_4871_2677" fill="white">
<path d="M15.8767 102C10.9742 102 7 98.0258 7 93.1233L7 14.8767C7 9.97424 10.9742 6.00001 15.8767 6.00001L246.123 6C251.026 6 255 9.97424 255 14.8767L255 93.1233C255 98.0258 251.026 102 246.123 102L15.8767 102Z"/>
</mask>
<path d="M15.8767 102C10.9742 102 7 98.0258 7 93.1233L7 14.8767C7 9.97424 10.9742 6.00001 15.8767 6.00001L246.123 6C251.026 6 255 9.97424 255 14.8767L255 93.1233C255 98.0258 251.026 102 246.123 102L15.8767 102Z" fill="url(#paint0_linear_4871_2677)"/>
<path d="M7 102L7 6.00001L7 102ZM255 6L255 102L255 6ZM255 102L7 102L255 102ZM7 14.8767C7 7.93155 12.6302 2.30138 19.5753 2.30138L242.425 2.30137C249.37 2.30137 255 7.93154 255 14.8767C255 12.0169 251.026 9.69863 246.123 9.69863L15.8767 9.69864C10.9742 9.69864 7 12.0169 7 14.8767Z" fill="#2057A6" mask="url(#path-1-inside-1_4871_2677)"/>
</g>
<mask id="mask0_4871_2677" style="mask-type:alpha" maskUnits="userSpaceOnUse" x="7" y="6" width="248" height="96">
<path d="M15.8767 102C10.9742 102 7 98.0258 7 93.1233L7 14.8767C7 9.97424 10.9742 6.00001 15.8767 6.00001L246.123 6C251.026 6 255 9.97424 255 14.8767L255 93.1233C255 98.0258 251.026 102 246.123 102L15.8767 102Z" fill="url(#paint1_linear_4871_2677)"/>
</mask>
<g mask="url(#mask0_4871_2677)">
<ellipse cx="236.189" cy="86.9997" rx="61.0195" ry="57.3288" fill="url(#paint2_linear_4871_2677)"/>
</g>
<defs>
<filter id="filter0_d_4871_2677" x="0.342466" y="0.821918" width="261.315" height="109.315" filterUnits="userSpaceOnUse" color-interpolation-filters="sRGB">
<feFlood flood-opacity="0" result="BackgroundImageFix"/>
<feColorMatrix in="SourceAlpha" type="matrix" values="0 0 0 0 0 0 0 0 0 0 0 0 0 0 0 0 0 0 127 0" result="hardAlpha"/>
<feMorphology radius="0.739726" operator="dilate" in="SourceAlpha" result="effect1_dropShadow_4871_2677"/>
<feOffset dy="1.47945"/>
<feGaussianBlur stdDeviation="2.9589"/>
<feComposite in2="hardAlpha" operator="out"/>
<feColorMatrix type="matrix" values="0 0 0 0 0 0 0 0 0 0 0 0 0 0 0 0 0 0 0.2 0"/>
<feBlend mode="normal" in2="BackgroundImageFix" result="effect1_dropShadow_4871_2677"/>
<feBlend mode="normal" in="SourceGraphic" in2="effect1_dropShadow_4871_2677" result="shape"/>
</filter>
<linearGradient id="paint0_linear_4871_2677" x1="17.0892" y1="54.0011" x2="255" y2="54.0012" gradientUnits="userSpaceOnUse">
<stop stop-color="#004CBE"/>
<stop offset="1" stop-color="#11E2FF"/>
</linearGradient>
<linearGradient id="paint1_linear_4871_2677" x1="17.0892" y1="54.0011" x2="255" y2="54.0012" gradientUnits="userSpaceOnUse">
<stop stop-color="#004CBE"/>
<stop offset="1" stop-color="#11E2FF"/>
</linearGradient>
<linearGradient id="paint2_linear_4871_2677" x1="203.908" y1="43.3558" x2="266.847" y2="137.682" gradientUnits="userSpaceOnUse">
<stop stop-color="#10DFFD" stop-opacity="0.76"/>
<stop offset="1" stop-color="#11E2FE" stop-opacity="0"/>
</linearGradient>
</defs>
</svg>
